# xmcd
#
# Track frame offsets:
#	150
#	12243
#	23446
#	37253
#	50481
#	64451
#	75089
#	87651
#	99345
#	111398
#	125253
#	137570
#	152181
#	170113
#	189209
#	199388
#	209618
#	222239
#	234346
#	244059
#	254487
#	264513
#	274649
#	291222
#	303495
#	313957
#
# Disc length: 4355 seconds
#
# Revision: 1
# Processed by: cddbd v1.5.2PL0 Copyright (c) Steve Scherf et al.
# Submitted via: audiograbber 1.83.01
#
DISCID=8111011a
DTITLE=The Downhome Blues Sessions - Volume 3, Memphis On Down
DYEAR=2004
DGENRE=Blues
TTITLE0=Willie Nix - Try Me One More Time
TTITLE1=Willie Nix - Lonesome Bedroom Blues
TTITLE2=Howling Wolf - Riding In The Moonlight
TTITLE3=Howling Wolf - Crying At Daybreak aka Smokestack Lightning
TTITLE4=Robert Bland With Lttle Junior Parker - Drifting From Town To Town
TTITLE5=Joe Hill Louis - Joe Hill Boogie (Fast Version)
TTITLE6=Joe Hill Louis - Street Walkin' Woman
TTITLE7=Joe Hill Louis - Heartache Baby
TTITLE8=Joe Hill Louis - Joe Hill Boogie (Slow Version)
TTITLE9=Walter "Mumbles" Horton - Now Tell Me Baby
TTITLE10=Jim Lockhart - Boogie Woogie Baby
TTITLE11=Jim Lockhart - Empty House Blues
TTITLE12=Alfred "Blues King" Harris - Sufficient Clothes
TTITLE13=Alfred "Blues King" Harris - Miss Darlene
TTITLE14=Robert "Dudlow" Taylor - Lonesome
TTITLE15=Robert "Dudlow" Taylor - Old Helena Blues
TTITLE16=James "Peck" Curtis - Bus Fare (Take 2)
TTITLE17=James "Peck" Curtis - 44 Blues (Take 2)
TTITLE18=Robert "Dudlow" Taylor - Porkina Blues aka Dudlow's Blues
TTITLE19=Robert "Dudlow" Taylor - I Know
TTITLE20=James "Peck" Curtis - Jerusalem Blues
TTITLE21=Dixie Blues Boys - Dixie Blues Boy Boogie
TTITLE22=Dixie Blues Boys - Monte Carlo
TTITLE23=Dixie Blues Boys - Let Me Go Home Whiskey
TTITLE24=Dixie Blues Boys - My Baby Left Town
TTITLE25=Dixie Blues Boys - Monte Carlo
EXTD=
EXTT0=
EXTT1=
EXTT2=
EXTT3=
EXTT4=
EXTT5=
EXTT6=
EXTT7=
EXTT8=
EXTT9=
EXTT10=
EXTT11=
EXTT12=
EXTT13=
EXTT14=
EXTT15=
EXTT16=
EXTT17=
EXTT18=
EXTT19=
EXTT20=
EXTT21=
EXTT22=
EXTT23=
EXTT24=
EXTT25=
PLAYORDER=
